<mxfile host="Electron" modified="2023-08-24T03:36:24.401Z" agent="Mozilla/5.0 (Windows NT 10.0; Win64; x64) AppleWebKit/537.36 (KHTML, like Gecko) draw.io/21.6.8 Chrome/114.0.5735.289 Electron/25.5.0 Safari/537.36" etag="UFTpS03iNJpnsy6PFNbD" version="21.6.8" type="device" pages="5">
  <diagram name="20.2" id="r3OS9QOY7_9umhtR6ntY">
    <mxGraphModel dx="880" dy="545" grid="1" gridSize="10" guides="1" tooltips="1" connect="1" arrows="1" fold="1" page="1" pageScale="1" pageWidth="1169" pageHeight="827" math="0" shadow="0">
      <root>
        <mxCell id="0" />
        <mxCell id="1" parent="0" />
        <mxCell id="nvFIn0lwHYB31mtBSwjw-1" value="Customer" style="whiteSpace=wrap;html=1;" vertex="1" parent="1">
          <mxGeometry y="40" width="80" height="30" as="geometry" />
        </mxCell>
        <mxCell id="nvFIn0lwHYB31mtBSwjw-2" style="edgeStyle=orthogonalEdgeStyle;rounded=0;orthogonalLoop=1;jettySize=auto;html=1;entryX=1;entryY=0.5;entryDx=0;entryDy=0;labelBackgroundColor=none;endArrow=open;verticalAlign=bottom;startArrow=none;endFill=0;startFill=0;endSize=8;dashed=1;" edge="1" parent="1" source="nvFIn0lwHYB31mtBSwjw-8" target="nvFIn0lwHYB31mtBSwjw-1">
          <mxGeometry relative="1" as="geometry" />
        </mxCell>
        <mxCell id="nvFIn0lwHYB31mtBSwjw-3" value="product" style="edgeLabel;html=1;align=center;verticalAlign=middle;resizable=0;points=[];labelBackgroundColor=none;" vertex="1" connectable="0" parent="nvFIn0lwHYB31mtBSwjw-2">
          <mxGeometry y="1" relative="1" as="geometry">
            <mxPoint y="-20" as="offset" />
          </mxGeometry>
        </mxCell>
        <mxCell id="nvFIn0lwHYB31mtBSwjw-4" value="«flow»" style="edgeLabel;html=1;align=center;verticalAlign=middle;resizable=0;points=[];fontSize=11;fontFamily=Helvetica;fontColor=default;labelBackgroundColor=none;" vertex="1" connectable="0" parent="nvFIn0lwHYB31mtBSwjw-2">
          <mxGeometry x="0.125" y="-2" relative="1" as="geometry">
            <mxPoint x="6" y="16" as="offset" />
          </mxGeometry>
        </mxCell>
        <mxCell id="nvFIn0lwHYB31mtBSwjw-5" style="rounded=0;orthogonalLoop=1;jettySize=auto;html=1;entryX=0;entryY=0.5;entryDx=0;entryDy=0;labelBackgroundColor=none;endArrow=open;verticalAlign=bottom;startArrow=none;endFill=0;startFill=0;endSize=8;dashed=1;exitX=1;exitY=0.5;exitDx=0;exitDy=0;" edge="1" parent="1" source="nvFIn0lwHYB31mtBSwjw-8" target="nvFIn0lwHYB31mtBSwjw-9">
          <mxGeometry relative="1" as="geometry" />
        </mxCell>
        <mxCell id="nvFIn0lwHYB31mtBSwjw-6" value="«flow»" style="edgeLabel;html=1;align=center;verticalAlign=middle;resizable=0;points=[];labelBackgroundColor=none;" vertex="1" connectable="0" parent="nvFIn0lwHYB31mtBSwjw-5">
          <mxGeometry x="-0.05" relative="1" as="geometry">
            <mxPoint x="-14" y="-12" as="offset" />
          </mxGeometry>
        </mxCell>
        <mxCell id="nvFIn0lwHYB31mtBSwjw-7" value="wage" style="edgeLabel;html=1;align=center;verticalAlign=middle;resizable=0;points=[];fontSize=11;fontFamily=Helvetica;fontColor=default;labelBackgroundColor=none;" vertex="1" connectable="0" parent="nvFIn0lwHYB31mtBSwjw-5">
          <mxGeometry x="-0.05" y="-2" relative="1" as="geometry">
            <mxPoint x="16" y="10" as="offset" />
          </mxGeometry>
        </mxCell>
        <mxCell id="nvFIn0lwHYB31mtBSwjw-8" value="Company" style="whiteSpace=wrap;html=1;" vertex="1" parent="1">
          <mxGeometry x="160" y="40" width="80" height="30" as="geometry" />
        </mxCell>
        <mxCell id="nvFIn0lwHYB31mtBSwjw-9" value="Employee" style="whiteSpace=wrap;html=1;" vertex="1" parent="1">
          <mxGeometry x="320" width="80" height="30" as="geometry" />
        </mxCell>
        <mxCell id="nvFIn0lwHYB31mtBSwjw-10" value="&lt;b&gt;Figure 20.2 Example of InformationFlows conveying InformationItems&lt;/b&gt;" style="text;html=1;align=left;verticalAlign=middle;resizable=0;points=[];autosize=1;strokeColor=none;fillColor=none;fontSize=11;fontFamily=Helvetica;fontColor=default;" vertex="1" parent="1">
          <mxGeometry y="80" width="390" height="30" as="geometry" />
        </mxCell>
      </root>
    </mxGraphModel>
  </diagram>
  <diagram id="SFhRhrfzxPjLaNFAOvrk" name="20.3">
    <mxGraphModel dx="880" dy="545" grid="1" gridSize="10" guides="1" tooltips="1" connect="1" arrows="1" fold="1" page="1" pageScale="1" pageWidth="1169" pageHeight="827" math="0" shadow="0">
      <root>
        <mxCell id="0" />
        <mxCell id="1" parent="0" />
        <mxCell id="sdoeJ2Rj2qNJmZElCI8a-1" value="&lt;br&gt;wage" style="align=center;spacingLeft=0;html=1;dashed=0;whiteSpace=wrap;labelBackgroundColor=none;fontFamily=Helvetica;fontSize=11;fontColor=default;fillColor=none;gradientColor=none;verticalAlign=middle;" vertex="1" parent="1">
          <mxGeometry x="160" width="80" height="40" as="geometry" />
        </mxCell>
        <mxCell id="sdoeJ2Rj2qNJmZElCI8a-2" value="" style="shape=triangle;fillColor=strokeColor;labelBackgroundColor=none;fontFamily=Helvetica;fontSize=11;fontColor=default;html=1;" vertex="1" parent="sdoeJ2Rj2qNJmZElCI8a-1">
          <mxGeometry x="1" y="0.5" width="14.25" height="9.5" relative="1" as="geometry">
            <mxPoint x="-21" y="-14" as="offset" />
          </mxGeometry>
        </mxCell>
        <mxCell id="sdoeJ2Rj2qNJmZElCI8a-3" value="«information»&lt;br&gt;wage" style="swimlane;fontStyle=0;align=center;verticalAlign=top;childLayout=stackLayout;horizontal=1;startSize=48;horizontalStack=0;resizeParent=1;resizeParentMax=0;resizeLast=0;collapsible=0;marginBottom=0;html=1;whiteSpace=wrap;labelBackgroundColor=none;fontFamily=Helvetica;fontSize=11;fontColor=default;fillColor=none;gradientColor=none;" vertex="1" parent="1">
          <mxGeometry width="90" height="40" as="geometry" />
        </mxCell>
        <mxCell id="SM7L3SNRqVRRCINM5eTN-1" value="&lt;b&gt;Figure 20.3 Information Item represented as a classifier&lt;/b&gt;" style="text;html=1;align=left;verticalAlign=middle;resizable=0;points=[];autosize=1;strokeColor=none;fillColor=none;fontSize=11;fontFamily=Helvetica;fontColor=default;" vertex="1" parent="1">
          <mxGeometry y="40" width="310" height="30" as="geometry" />
        </mxCell>
      </root>
    </mxGraphModel>
  </diagram>
  <diagram id="nt2pM3nKqfI6EYJlAWar" name="20.4">
    <mxGraphModel dx="880" dy="545" grid="1" gridSize="10" guides="1" tooltips="1" connect="1" arrows="1" fold="1" page="1" pageScale="1" pageWidth="1169" pageHeight="827" math="0" shadow="0">
      <root>
        <mxCell id="0" />
        <mxCell id="1" parent="0" />
        <mxCell id="l2tMOlq6P5LPorUDMpJJ-5" style="edgeStyle=orthogonalEdgeStyle;rounded=0;orthogonalLoop=1;jettySize=auto;html=1;entryX=0;entryY=0.5;entryDx=0;entryDy=0;fontFamily=Helvetica;fontSize=11;fontColor=default;labelBackgroundColor=none;endArrow=open;verticalAlign=bottom;startArrow=none;endFill=0;startFill=0;endSize=8;dashed=1;" edge="1" parent="1" source="muC9rhxRwF_sHe84qTLZ-1" target="z5UdVB_LO2HTKI6TILr_-5">
          <mxGeometry relative="1" as="geometry" />
        </mxCell>
        <mxCell id="l2tMOlq6P5LPorUDMpJJ-9" value="«representation»" style="edgeLabel;html=1;align=center;verticalAlign=middle;resizable=0;points=[];fontSize=11;fontFamily=Helvetica;fontColor=default;labelBackgroundColor=none;" vertex="1" connectable="0" parent="l2tMOlq6P5LPorUDMpJJ-5">
          <mxGeometry x="-0.3667" y="1" relative="1" as="geometry">
            <mxPoint x="18" y="11" as="offset" />
          </mxGeometry>
        </mxCell>
        <mxCell id="l2tMOlq6P5LPorUDMpJJ-6" style="edgeStyle=orthogonalEdgeStyle;rounded=0;orthogonalLoop=1;jettySize=auto;html=1;entryX=0;entryY=0.5;entryDx=0;entryDy=0;fontFamily=Helvetica;fontSize=11;fontColor=default;labelBackgroundColor=none;endArrow=open;verticalAlign=bottom;startArrow=none;endFill=0;startFill=0;endSize=8;dashed=1;" edge="1" parent="1" source="muC9rhxRwF_sHe84qTLZ-1" target="z5UdVB_LO2HTKI6TILr_-6">
          <mxGeometry relative="1" as="geometry">
            <Array as="points">
              <mxPoint x="370" y="110" />
            </Array>
          </mxGeometry>
        </mxCell>
        <mxCell id="l2tMOlq6P5LPorUDMpJJ-10" value="«representation»" style="edgeLabel;html=1;align=center;verticalAlign=middle;resizable=0;points=[];fontSize=11;fontFamily=Helvetica;fontColor=default;labelBackgroundColor=none;" vertex="1" connectable="0" parent="l2tMOlq6P5LPorUDMpJJ-6">
          <mxGeometry x="0.0545" relative="1" as="geometry">
            <mxPoint x="22" y="-15" as="offset" />
          </mxGeometry>
        </mxCell>
        <mxCell id="muC9rhxRwF_sHe84qTLZ-1" value="&lt;br style=&quot;font-size: 12px;&quot;&gt;Wage" style="align=center;spacingLeft=0;html=1;dashed=0;whiteSpace=wrap;labelBackgroundColor=none;fontFamily=Helvetica;fontSize=12;fontColor=default;fillColor=none;gradientColor=none;verticalAlign=middle;" vertex="1" parent="1">
          <mxGeometry x="330" y="10" width="80" height="40" as="geometry" />
        </mxCell>
        <mxCell id="muC9rhxRwF_sHe84qTLZ-2" value="" style="shape=triangle;fillColor=strokeColor;labelBackgroundColor=none;fontFamily=Helvetica;fontSize=11;fontColor=default;html=1;" vertex="1" parent="muC9rhxRwF_sHe84qTLZ-1">
          <mxGeometry x="1" y="0.5" width="14.25" height="9.5" relative="1" as="geometry">
            <mxPoint x="-21" y="-14" as="offset" />
          </mxGeometry>
        </mxCell>
        <mxCell id="l2tMOlq6P5LPorUDMpJJ-3" style="edgeStyle=orthogonalEdgeStyle;rounded=0;orthogonalLoop=1;jettySize=auto;html=1;entryX=0;entryY=0.5;entryDx=0;entryDy=0;fontFamily=Helvetica;fontSize=11;fontColor=default;labelBackgroundColor=none;endArrow=open;verticalAlign=bottom;startArrow=none;endFill=0;startFill=0;endSize=8;dashed=1;" edge="1" parent="1" source="z5UdVB_LO2HTKI6TILr_-1" target="z5UdVB_LO2HTKI6TILr_-3">
          <mxGeometry relative="1" as="geometry" />
        </mxCell>
        <mxCell id="l2tMOlq6P5LPorUDMpJJ-7" value="«representation»" style="edgeLabel;html=1;align=center;verticalAlign=middle;resizable=0;points=[];fontSize=11;fontFamily=Helvetica;fontColor=default;labelBackgroundColor=none;" vertex="1" connectable="0" parent="l2tMOlq6P5LPorUDMpJJ-3">
          <mxGeometry x="-0.35" y="-1" relative="1" as="geometry">
            <mxPoint x="20" y="10" as="offset" />
          </mxGeometry>
        </mxCell>
        <mxCell id="l2tMOlq6P5LPorUDMpJJ-4" style="edgeStyle=orthogonalEdgeStyle;rounded=0;orthogonalLoop=1;jettySize=auto;html=1;entryX=0;entryY=0.5;entryDx=0;entryDy=0;fontFamily=Helvetica;fontSize=11;fontColor=default;exitX=0.5;exitY=1;exitDx=0;exitDy=0;labelBackgroundColor=none;endArrow=open;verticalAlign=bottom;startArrow=none;endFill=0;startFill=0;endSize=8;dashed=1;" edge="1" parent="1" source="z5UdVB_LO2HTKI6TILr_-1" target="l2tMOlq6P5LPorUDMpJJ-1">
          <mxGeometry relative="1" as="geometry" />
        </mxCell>
        <mxCell id="l2tMOlq6P5LPorUDMpJJ-8" value="«representation»" style="edgeLabel;html=1;align=center;verticalAlign=middle;resizable=0;points=[];fontSize=11;fontFamily=Helvetica;fontColor=default;labelBackgroundColor=none;" vertex="1" connectable="0" parent="l2tMOlq6P5LPorUDMpJJ-4">
          <mxGeometry x="0.2364" y="1" relative="1" as="geometry">
            <mxPoint y="-14" as="offset" />
          </mxGeometry>
        </mxCell>
        <mxCell id="z5UdVB_LO2HTKI6TILr_-1" value="travel&lt;br&gt;document" style="align=center;spacingLeft=0;html=1;dashed=0;whiteSpace=wrap;labelBackgroundColor=none;fontFamily=Helvetica;fontSize=11;fontColor=default;fillColor=none;gradientColor=none;verticalAlign=middle;" vertex="1" parent="1">
          <mxGeometry x="10" y="10" width="80" height="40" as="geometry" />
        </mxCell>
        <mxCell id="z5UdVB_LO2HTKI6TILr_-2" value="" style="shape=triangle;fillColor=strokeColor;labelBackgroundColor=none;fontFamily=Helvetica;fontSize=11;fontColor=default;html=1;" vertex="1" parent="z5UdVB_LO2HTKI6TILr_-1">
          <mxGeometry x="1" y="0.5" width="14.25" height="9.5" relative="1" as="geometry">
            <mxPoint x="-21" y="-14" as="offset" />
          </mxGeometry>
        </mxCell>
        <mxCell id="z5UdVB_LO2HTKI6TILr_-3" value="&lt;br&gt;passport" style="align=center;spacingLeft=0;html=1;dashed=0;whiteSpace=wrap;labelBackgroundColor=none;fontFamily=Helvetica;fontSize=11;fontColor=default;fillColor=none;gradientColor=none;verticalAlign=middle;" vertex="1" parent="1">
          <mxGeometry x="210" y="10" width="80" height="40" as="geometry" />
        </mxCell>
        <mxCell id="z5UdVB_LO2HTKI6TILr_-4" value="" style="shape=triangle;fillColor=strokeColor;labelBackgroundColor=none;fontFamily=Helvetica;fontSize=11;fontColor=default;html=1;" vertex="1" parent="z5UdVB_LO2HTKI6TILr_-3">
          <mxGeometry x="1" y="0.5" width="14.25" height="9.5" relative="1" as="geometry">
            <mxPoint x="-21" y="-14" as="offset" />
          </mxGeometry>
        </mxCell>
        <mxCell id="z5UdVB_LO2HTKI6TILr_-5" value="Salary" style="whiteSpace=wrap;html=1;labelBackgroundColor=none;fontFamily=Helvetica;fontSize=12;fontColor=default;fillColor=none;gradientColor=none;" vertex="1" parent="1">
          <mxGeometry x="530" y="10" width="80" height="40" as="geometry" />
        </mxCell>
        <mxCell id="z5UdVB_LO2HTKI6TILr_-6" value="Bonus" style="whiteSpace=wrap;html=1;labelBackgroundColor=none;fontFamily=Helvetica;fontSize=12;fontColor=default;fillColor=none;gradientColor=none;" vertex="1" parent="1">
          <mxGeometry x="530" y="90" width="80" height="40" as="geometry" />
        </mxCell>
        <mxCell id="l2tMOlq6P5LPorUDMpJJ-1" value="&lt;br&gt;plane ticket" style="align=center;spacingLeft=0;html=1;dashed=0;whiteSpace=wrap;labelBackgroundColor=none;fontFamily=Helvetica;fontSize=11;fontColor=default;fillColor=none;gradientColor=none;verticalAlign=middle;" vertex="1" parent="1">
          <mxGeometry x="210" y="90" width="80" height="40" as="geometry" />
        </mxCell>
        <mxCell id="l2tMOlq6P5LPorUDMpJJ-2" value="" style="shape=triangle;fillColor=strokeColor;labelBackgroundColor=none;fontFamily=Helvetica;fontSize=11;fontColor=default;html=1;" vertex="1" parent="l2tMOlq6P5LPorUDMpJJ-1">
          <mxGeometry x="1" y="0.5" width="14.25" height="9.5" relative="1" as="geometry">
            <mxPoint x="-21" y="-14" as="offset" />
          </mxGeometry>
        </mxCell>
        <mxCell id="l2tMOlq6P5LPorUDMpJJ-11" value="&lt;b&gt;Figure 20.4 Examples of «representation» notation&lt;/b&gt;" style="text;html=1;align=left;verticalAlign=middle;resizable=0;points=[];autosize=1;strokeColor=none;fillColor=none;fontSize=11;fontFamily=Helvetica;fontColor=default;" vertex="1" parent="1">
          <mxGeometry x="10" y="130" width="290" height="30" as="geometry" />
        </mxCell>
      </root>
    </mxGraphModel>
  </diagram>
  <diagram id="mNKvg1vAsy-BDUGRte-k" name="20.5">
    <mxGraphModel dx="880" dy="545" grid="1" gridSize="10" guides="1" tooltips="1" connect="1" arrows="1" fold="1" page="1" pageScale="1" pageWidth="1169" pageHeight="827" math="0" shadow="0">
      <root>
        <mxCell id="0" />
        <mxCell id="1" parent="0" />
        <mxCell id="Ha-W4F9y-ozgIHsRUx52-3" style="edgeStyle=orthogonalEdgeStyle;rounded=0;orthogonalLoop=1;jettySize=auto;html=1;entryX=0;entryY=0.5;entryDx=0;entryDy=0;fontFamily=Helvetica;fontSize=11;fontColor=default;endArrow=none;endFill=0;" edge="1" parent="1" source="Ha-W4F9y-ozgIHsRUx52-1" target="Ha-W4F9y-ozgIHsRUx52-2">
          <mxGeometry relative="1" as="geometry" />
        </mxCell>
        <mxCell id="Ha-W4F9y-ozgIHsRUx52-1" value="m1:myC1" style="whiteSpace=wrap;html=1;labelBackgroundColor=none;fontFamily=Helvetica;fontSize=12;fontColor=default;fillColor=none;gradientColor=none;" vertex="1" parent="1">
          <mxGeometry y="40" width="80" height="40" as="geometry" />
        </mxCell>
        <mxCell id="Ha-W4F9y-ozgIHsRUx52-2" value="m2:myC1" style="whiteSpace=wrap;html=1;labelBackgroundColor=none;fontFamily=Helvetica;fontSize=12;fontColor=default;fillColor=none;gradientColor=none;" vertex="1" parent="1">
          <mxGeometry x="200" y="40" width="80" height="40" as="geometry" />
        </mxCell>
        <mxCell id="Ha-W4F9y-ozgIHsRUx52-5" value="" style="edgeStyle=orthogonalEdgeStyle;rounded=0;orthogonalLoop=1;jettySize=auto;html=1;fontFamily=Helvetica;fontSize=11;fontColor=default;exitX=1;exitY=0.5;exitDx=0;exitDy=0;endArrow=none;endFill=0;entryX=0.5;entryY=0.5;entryDx=0;entryDy=0;entryPerimeter=0;" edge="1" parent="1" source="Ha-W4F9y-ozgIHsRUx52-4" target="Ha-W4F9y-ozgIHsRUx52-6">
          <mxGeometry relative="1" as="geometry" />
        </mxCell>
        <mxCell id="Ha-W4F9y-ozgIHsRUx52-7" value="p" style="edgeLabel;html=1;align=center;verticalAlign=middle;resizable=0;points=[];fontSize=11;fontFamily=Helvetica;fontColor=default;labelBackgroundColor=none;" vertex="1" connectable="0" parent="Ha-W4F9y-ozgIHsRUx52-5">
          <mxGeometry x="-0.7565" y="1" relative="1" as="geometry">
            <mxPoint x="-8" y="-13" as="offset" />
          </mxGeometry>
        </mxCell>
        <mxCell id="Ha-W4F9y-ozgIHsRUx52-8" value="q" style="edgeLabel;html=1;align=center;verticalAlign=middle;resizable=0;points=[];fontSize=11;fontFamily=Helvetica;fontColor=default;labelBackgroundColor=none;" vertex="1" connectable="0" parent="Ha-W4F9y-ozgIHsRUx52-5">
          <mxGeometry x="0.6" y="-1" relative="1" as="geometry">
            <mxPoint x="10" y="-15" as="offset" />
          </mxGeometry>
        </mxCell>
        <mxCell id="Ha-W4F9y-ozgIHsRUx52-4" value="" style="fontStyle=0;labelPosition=right;verticalLabelPosition=middle;align=left;verticalAlign=middle;spacingLeft=2;labelBackgroundColor=none;fontFamily=Helvetica;fontSize=11;fontColor=default;fillColor=default;gradientColor=none;html=1;" vertex="1" parent="1">
          <mxGeometry x="75" y="55" width="10" height="10" as="geometry" />
        </mxCell>
        <mxCell id="Ha-W4F9y-ozgIHsRUx52-6" value="" style="fontStyle=0;labelPosition=right;verticalLabelPosition=middle;align=left;verticalAlign=middle;spacingLeft=2;labelBackgroundColor=none;fontFamily=Helvetica;fontSize=11;fontColor=default;fillColor=default;gradientColor=none;html=1;" vertex="1" parent="1">
          <mxGeometry x="195" y="55" width="10" height="10" as="geometry" />
        </mxCell>
        <mxCell id="lHbxtstVvTfaM5knVjI_-1" value="" style="shape=triangle;fillColor=strokeColor;labelBackgroundColor=none;fontFamily=Helvetica;fontSize=11;fontColor=default;html=1;" vertex="1" parent="1">
          <mxGeometry x="159" y="55" width="14.25" height="9.5" as="geometry" />
        </mxCell>
        <mxCell id="lHbxtstVvTfaM5knVjI_-2" value="" style="shape=triangle;fillColor=strokeColor;labelBackgroundColor=none;fontFamily=Helvetica;fontSize=11;fontColor=default;html=1;flipH=1;" vertex="1" parent="1">
          <mxGeometry x="105" y="55" width="14.25" height="9.5" as="geometry" />
        </mxCell>
        <mxCell id="lHbxtstVvTfaM5knVjI_-3" value="a" style="text;strokeColor=none;align=center;fillColor=none;html=1;verticalAlign=middle;whiteSpace=wrap;rounded=0;fontSize=12;fontFamily=Helvetica;fontColor=default;" vertex="1" parent="1">
          <mxGeometry x="98" y="20" width="30" height="30" as="geometry" />
        </mxCell>
        <mxCell id="lHbxtstVvTfaM5knVjI_-4" value="b, d" style="text;strokeColor=none;align=center;fillColor=none;html=1;verticalAlign=middle;whiteSpace=wrap;rounded=0;fontSize=12;fontFamily=Helvetica;fontColor=default;" vertex="1" parent="1">
          <mxGeometry x="148" y="20" width="30" height="30" as="geometry" />
        </mxCell>
        <mxCell id="lHbxtstVvTfaM5knVjI_-5" value="&lt;b&gt;Figure 20.5 InformationItems attached to Connectors&lt;/b&gt;" style="text;html=1;align=left;verticalAlign=middle;resizable=0;points=[];autosize=1;strokeColor=none;fillColor=none;fontSize=11;fontFamily=Helvetica;fontColor=default;" vertex="1" parent="1">
          <mxGeometry y="80" width="300" height="30" as="geometry" />
        </mxCell>
      </root>
    </mxGraphModel>
  </diagram>
  <diagram id="ygmv0ZEJVWChFw1mtCGi" name="20.6">
    <mxGraphModel dx="880" dy="545" grid="1" gridSize="10" guides="1" tooltips="1" connect="1" arrows="1" fold="1" page="1" pageScale="1" pageWidth="1169" pageHeight="827" math="0" shadow="0">
      <root>
        <mxCell id="0" />
        <mxCell id="1" parent="0" />
        <mxCell id="8OtrPt3Ukf-i5uhRnEob-1" value="Customer" style="whiteSpace=wrap;html=1;" vertex="1" parent="1">
          <mxGeometry y="40" width="80" height="30" as="geometry" />
        </mxCell>
        <mxCell id="8OtrPt3Ukf-i5uhRnEob-2" style="edgeStyle=orthogonalEdgeStyle;rounded=0;orthogonalLoop=1;jettySize=auto;html=1;entryX=1;entryY=0.5;entryDx=0;entryDy=0;labelBackgroundColor=none;endArrow=none;verticalAlign=bottom;startArrow=none;endFill=0;startFill=0;endSize=8;" edge="1" parent="1" source="JHx2lj8oKjCwY1vEjL2n-1" target="8OtrPt3Ukf-i5uhRnEob-1">
          <mxGeometry relative="1" as="geometry" />
        </mxCell>
        <mxCell id="8OtrPt3Ukf-i5uhRnEob-13" value="*" style="edgeLabel;html=1;align=center;verticalAlign=middle;resizable=0;points=[];fontSize=11;fontFamily=Helvetica;fontColor=default;labelBackgroundColor=none;" vertex="1" connectable="0" parent="8OtrPt3Ukf-i5uhRnEob-2">
          <mxGeometry x="0.6" relative="1" as="geometry">
            <mxPoint x="-5" y="10" as="offset" />
          </mxGeometry>
        </mxCell>
        <mxCell id="8OtrPt3Ukf-i5uhRnEob-5" style="rounded=0;orthogonalLoop=1;jettySize=auto;html=1;entryX=0;entryY=0.5;entryDx=0;entryDy=0;labelBackgroundColor=none;endArrow=none;verticalAlign=bottom;startArrow=none;endFill=0;startFill=0;endSize=8;exitX=1;exitY=0.5;exitDx=0;exitDy=0;" edge="1" parent="1" source="8OtrPt3Ukf-i5uhRnEob-8" target="8OtrPt3Ukf-i5uhRnEob-9">
          <mxGeometry relative="1" as="geometry" />
        </mxCell>
        <mxCell id="8OtrPt3Ukf-i5uhRnEob-7" value="wage" style="edgeLabel;html=1;align=center;verticalAlign=middle;resizable=0;points=[];fontSize=11;fontFamily=Helvetica;fontColor=default;labelBackgroundColor=none;" vertex="1" connectable="0" parent="8OtrPt3Ukf-i5uhRnEob-5">
          <mxGeometry x="-0.05" y="-2" relative="1" as="geometry">
            <mxPoint x="16" y="10" as="offset" />
          </mxGeometry>
        </mxCell>
        <mxCell id="8OtrPt3Ukf-i5uhRnEob-11" value="0..1" style="edgeLabel;html=1;align=center;verticalAlign=middle;resizable=0;points=[];fontSize=11;fontFamily=Helvetica;fontColor=default;labelBackgroundColor=none;" vertex="1" connectable="0" parent="8OtrPt3Ukf-i5uhRnEob-5">
          <mxGeometry x="-0.41" y="-1" relative="1" as="geometry">
            <mxPoint x="-22" y="19" as="offset" />
          </mxGeometry>
        </mxCell>
        <mxCell id="8OtrPt3Ukf-i5uhRnEob-12" value="*" style="edgeLabel;html=1;align=center;verticalAlign=middle;resizable=0;points=[];fontSize=11;fontFamily=Helvetica;fontColor=default;labelBackgroundColor=none;" vertex="1" connectable="0" parent="8OtrPt3Ukf-i5uhRnEob-5">
          <mxGeometry x="0.38" relative="1" as="geometry">
            <mxPoint x="29" y="-18" as="offset" />
          </mxGeometry>
        </mxCell>
        <mxCell id="8OtrPt3Ukf-i5uhRnEob-8" value="Company" style="whiteSpace=wrap;html=1;" vertex="1" parent="1">
          <mxGeometry x="200" y="40" width="80" height="30" as="geometry" />
        </mxCell>
        <mxCell id="8OtrPt3Ukf-i5uhRnEob-9" value="Employee" style="whiteSpace=wrap;html=1;" vertex="1" parent="1">
          <mxGeometry x="400" width="80" height="30" as="geometry" />
        </mxCell>
        <mxCell id="8OtrPt3Ukf-i5uhRnEob-10" value="&lt;b&gt;Figure 20.6 InformationItems attached to Associations&lt;/b&gt;" style="text;html=1;align=left;verticalAlign=middle;resizable=0;points=[];autosize=1;strokeColor=none;fillColor=none;fontSize=11;fontFamily=Helvetica;fontColor=default;" vertex="1" parent="1">
          <mxGeometry y="80" width="310" height="30" as="geometry" />
        </mxCell>
        <mxCell id="JHx2lj8oKjCwY1vEjL2n-2" value="" style="edgeStyle=orthogonalEdgeStyle;rounded=0;orthogonalLoop=1;jettySize=auto;html=1;entryX=1;entryY=0.5;entryDx=0;entryDy=0;labelBackgroundColor=none;endArrow=none;verticalAlign=bottom;startArrow=none;endFill=0;startFill=0;endSize=8;" edge="1" parent="1" source="8OtrPt3Ukf-i5uhRnEob-8" target="JHx2lj8oKjCwY1vEjL2n-1">
          <mxGeometry relative="1" as="geometry">
            <mxPoint x="160" y="55" as="sourcePoint" />
            <mxPoint x="80" y="55" as="targetPoint" />
          </mxGeometry>
        </mxCell>
        <mxCell id="JHx2lj8oKjCwY1vEjL2n-4" value="*" style="edgeLabel;html=1;align=center;verticalAlign=middle;resizable=0;points=[];fontSize=11;fontFamily=Helvetica;fontColor=default;labelBackgroundColor=none;" vertex="1" connectable="0" parent="JHx2lj8oKjCwY1vEjL2n-2">
          <mxGeometry x="-0.525" relative="1" as="geometry">
            <mxPoint x="6" y="10" as="offset" />
          </mxGeometry>
        </mxCell>
        <mxCell id="JHx2lj8oKjCwY1vEjL2n-6" value="provider" style="edgeLabel;html=1;align=center;verticalAlign=middle;resizable=0;points=[];fontSize=11;fontFamily=Helvetica;fontColor=default;labelBackgroundColor=none;" vertex="1" connectable="0" parent="JHx2lj8oKjCwY1vEjL2n-2">
          <mxGeometry x="0.1356" relative="1" as="geometry">
            <mxPoint x="4" y="-13" as="offset" />
          </mxGeometry>
        </mxCell>
        <mxCell id="JHx2lj8oKjCwY1vEjL2n-1" value="" style="shape=triangle;fillColor=strokeColor;labelBackgroundColor=none;fontFamily=Helvetica;fontSize=11;fontColor=default;html=1;flipH=1;" vertex="1" parent="1">
          <mxGeometry x="132.88" y="50.25" width="14.25" height="9.5" as="geometry" />
        </mxCell>
        <mxCell id="JHx2lj8oKjCwY1vEjL2n-5" value="product" style="text;html=1;align=center;verticalAlign=middle;resizable=0;points=[];autosize=1;strokeColor=none;fillColor=none;fontSize=11;fontFamily=Helvetica;fontColor=default;" vertex="1" parent="1">
          <mxGeometry x="110" y="52.75" width="60" height="30" as="geometry" />
        </mxCell>
        <mxCell id="JHx2lj8oKjCwY1vEjL2n-7" value="employer" style="text;html=1;align=center;verticalAlign=middle;resizable=0;points=[];autosize=1;strokeColor=none;fillColor=none;fontSize=11;fontFamily=Helvetica;fontColor=default;" vertex="1" parent="1">
          <mxGeometry x="255" y="18" width="70" height="30" as="geometry" />
        </mxCell>
        <mxCell id="uiI6vr4n0Yoc3pl-kO_n-1" value="" style="shape=triangle;fillColor=strokeColor;labelBackgroundColor=none;fontFamily=Helvetica;fontSize=11;fontColor=default;html=1;direction=east;rotation=339;" vertex="1" parent="1">
          <mxGeometry x="335" y="30" width="14.25" height="9.5" as="geometry" />
        </mxCell>
      </root>
    </mxGraphModel>
  </diagram>
</mxfile>
